<svg xmlns="http://www.w3.org/2000/svg" width="85.932" height="80.435" viewBox="0 0 85.932 80.435">
  <g id="Сгруппировать_33" data-name="Сгруппировать 33" transform="translate(-3536.581 -1837.283)">
    <g id="Сгруппировать_22" data-name="Сгруппировать 22" transform="translate(3102 1668)">
      <path id="Контур_39" data-name="Контур 39" d="M498.469,173.284H487.288a4.21,4.21,0,0,0-4.211,4.21V192.87a4.21,4.21,0,0,0,4.211,4.21h22.9c1.574,0,4.772-.224,4.772-4.21v-2.736" fill="none" stroke="#fff" stroke-linecap="round" stroke-linejoin="round" stroke-width="3"/>
      <rect id="Прямоугольник_3" data-name="Прямоугольник 3" width="19.973" height="18.816" rx="4.238" transform="translate(497.616 171.637)" stroke-width="3" stroke="#fff" stroke-linecap="round" stroke-linejoin="round" fill="none"/>
      <g id="Контур_40" data-name="Контур 40" fill="none" stroke-linecap="round" stroke-linejoin="round">
        <path d="M514.27,181.044a6.668,6.668,0,1,1-1.96-4.721A6.667,6.667,0,0,1,514.27,181.044Z" stroke="none"/>
        <path d="M 507.6029968261719 176.3769989013672 C 505.0296325683594 176.3769989013672 502.93603515625 178.4706115722656 502.93603515625 181.0440063476563 C 502.93603515625 183.6179504394531 505.0296325683594 185.7120056152344 507.6029968261719 185.7120056152344 C 510.1763916015625 185.7120056152344 512.27001953125 183.6179504394531 512.27001953125 181.0440063476563 C 512.27001953125 179.7948455810547 511.7828063964844 178.6213073730469 510.8981323242188 177.7395477294922 C 510.0165405273438 176.8609008789063 508.8463134765625 176.3769989013672 507.6029968261719 176.3769989013672 M 507.6029968261719 174.3769989013672 C 509.4400024414063 174.3769989013672 511.10400390625 175.1210021972656 512.3099975585938 176.322998046875 C 513.52099609375 177.5299987792969 514.27001953125 179.1999969482422 514.27001953125 181.0440063476563 C 514.27001953125 184.7270050048828 511.2850036621094 187.7120056152344 507.6029968261719 187.7120056152344 C 503.9209899902344 187.7120056152344 500.93603515625 184.7270050048828 500.93603515625 181.0440063476563 C 500.93603515625 177.3619995117188 503.9209899902344 174.3769989013672 507.6029968261719 174.3769989013672 Z" stroke="none" fill="#fff"/>
      </g>
      <g id="Прямоугольник_4" data-name="Прямоугольник 4" transform="translate(486.287 176.742)" fill="none" stroke="#fff" stroke-miterlimit="10" stroke-width="2">
        <rect width="8.221" height="8.221" rx="1.08" stroke="none"/>
        <rect x="1" y="1" width="6.221" height="6.221" rx="0.08" fill="none"/>
      </g>
      <line id="Линия_39" data-name="Линия 39" y2="5.099" transform="translate(498.74 197.647)" fill="none" stroke="#fff" stroke-linecap="round" stroke-linejoin="round" stroke-width="2"/>
      <path id="Контур_41" data-name="Контур 41" d="M495.605,200.182v5.708h6.27v-5.708" fill="none" stroke="#fff" stroke-linecap="round" stroke-linejoin="round" stroke-width="2"/>
      <line id="Линия_40" data-name="Линия 40" x2="14.822" transform="translate(491.329 205.89)" fill="none" stroke="#fff" stroke-linecap="round" stroke-linejoin="round" stroke-width="3"/>
      <g id="Эллипс_30" data-name="Эллипс 30" transform="translate(487.448 186.82)" fill="none" stroke="#fff" stroke-linecap="round" stroke-linejoin="round" stroke-width="3">
        <circle cx="2.949" cy="2.949" r="2.949" stroke="none"/>
        <circle cx="2.949" cy="2.949" r="1.449" fill="none"/>
      </g>
    </g>
    <g id="Сгруппировать_23" data-name="Сгруппировать 23" transform="translate(3102 1668)">
      <path id="Контур_42" data-name="Контур 42" d="M462.232,197.442s-.033-5.607-3.125-7.84c-4.019-2.9-10.5.911-10.5.911s-1.668-3.276-2.667-3.749c-2.132-1.009-9.859-1.048-9.859-1.048l.743-3.641a15,15,0,0,1,14.534-11.292h7.353a15,15,0,0,1,15,15h0c0,4.3-1.854,10.3-1.854,10.3A51.636,51.636,0,0,1,462.232,197.442Z" fill="none" stroke="#fff" stroke-linecap="round" stroke-linejoin="round" stroke-width="3"/>
      <line id="Линия_41" data-name="Линия 41" x2="3.191" y2="9.268" transform="translate(449.172 190.513)" fill="none" stroke="#fff" stroke-linecap="round" stroke-linejoin="round" stroke-width="2"/>
      <line id="Линия_42" data-name="Линия 42" x1="9.869" y2="2.339" transform="translate(452.363 197.442)" fill="none" stroke="#fff" stroke-linecap="round" stroke-linejoin="round" stroke-width="2"/>
      <line id="Линия_43" data-name="Линия 43" x1="3.734" y2="5.283" transform="translate(448.629 199.781)" fill="none" stroke="#fff" stroke-linecap="round" stroke-linejoin="round" stroke-width="3"/>
      <g id="Эллипс_31" data-name="Эллипс 31" transform="translate(446.337 202.773)" fill="none" stroke="#fff" stroke-linecap="round" stroke-linejoin="round" stroke-width="3">
        <circle cx="2.292" cy="2.292" r="2.292" stroke="none"/>
        <circle cx="2.292" cy="2.292" r="0.792" fill="none"/>
      </g>
    </g>
    <path id="Контур_43" data-name="Контур 43" d="M457.468,214.823l.745,2.1a2.871,2.871,0,0,0,3.938,1.631l2.008-.955a2.871,2.871,0,0,1,3.825,3.826l-.954,2.008a2.871,2.871,0,0,0,1.631,3.938l2.1.745a2.871,2.871,0,0,1,0,5.41l-2.1.745a2.871,2.871,0,0,0-1.631,3.938l.954,2.007a2.871,2.871,0,0,1-3.825,3.826l-2.008-.954a2.871,2.871,0,0,0-3.938,1.631l-.745,2.094a2.871,2.871,0,0,1-5.41,0l-.745-2.094a2.871,2.871,0,0,0-3.938-1.631l-2.008.954a2.871,2.871,0,0,1-3.825-3.826l.954-2.007a2.871,2.871,0,0,0-1.631-3.938l-2.1-.745a2.871,2.871,0,0,1,0-5.41l2.1-.745a2.871,2.871,0,0,0,1.631-3.938l-.954-2.008a2.871,2.871,0,0,1,3.825-3.826l2.008.955a2.871,2.871,0,0,0,3.938-1.631l.745-2.1A2.871,2.871,0,0,1,457.468,214.823Z" transform="translate(3101.5 1667.5)" fill="none" stroke="#fff" stroke-linecap="round" stroke-linejoin="round" stroke-width="3"/>
    <circle id="Эллипс_32" data-name="Эллипс 32" cx="7.449" cy="7.449" r="7.449" transform="translate(3548.5 1890.5)" stroke-width="2" stroke="#fff" stroke-linecap="round" stroke-linejoin="round" fill="none"/>
    <g id="Сгруппировать_24" data-name="Сгруппировать 24" transform="translate(3102 1668)">
      <path id="Контур_44" data-name="Контур 44" d="M520.478,221.252a1,1,0,0,0-.531-.654l-10.223-5.112a1,1,0,0,0-.455-.107h-5.623a1.025,1.025,0,0,0-1.022,1.022,3.578,3.578,0,0,1-7.156,0,1.025,1.025,0,0,0-1.022-1.022h-5.623a1,1,0,0,0-.455.107L478.146,220.6a1.022,1.022,0,0,0-.394,1.482l5.111,7.667a1.019,1.019,0,0,0,1.14.414l3.8-1.14V247.07a1.025,1.025,0,0,0,1.022,1.022h20.446a1.025,1.025,0,0,0,1.022-1.022V229.021l3.8,1.14a1.123,1.123,0,0,0,.291.041,1.007,1.007,0,0,0,.849-.455l5.111-7.667A1.01,1.01,0,0,0,520.478,221.252Zm-6.527,6.732-3.66-1.1V225.6a1.022,1.022,0,1,0-2.044,0v20.445h-18.4V225.6a1.023,1.023,0,1,0-2.045,0v1.283l-3.66,1.1-4.048-6.073,8.971-4.488h4.452a5.624,5.624,0,0,0,11.061,0h4.452l8.97,4.488Z" fill="#fff"/>
    </g>
  </g>
</svg>
