<svg xmlns="http://www.w3.org/2000/svg" width="28.97" height="35.319" viewBox="0 0 28.97 35.319">
  <g id="company" transform="translate(-46.022)">
    <path id="Контур_53" data-name="Контур 53" d="M55.627,145.14c-5.257-.03-9.6-10.761-9.6-16.225,0-8.927,6.7-10.881,9.277-10.881a10.675,10.675,0,0,1,3.5.861,7.824,7.824,0,0,0,2,.573A6.22,6.22,0,0,0,62.232,119a11.492,11.492,0,0,1,4.322-1.045h.01a8.858,8.858,0,0,1,7.413,3.744l.541.812-.778.587a6.547,6.547,0,0,0-3.14,5.4,6.094,6.094,0,0,0,3.4,5.633c.487.293.991.6.991,1.256,0,.432-3.444,9.7-8.445,9.7a6.791,6.791,0,0,1-2.852-.692,5.783,5.783,0,0,0-2.538-.611,6.529,6.529,0,0,0-2.01.544,9.844,9.844,0,0,1-3.486.813Z" transform="translate(0 -109.821)" fill="#fff"/>
    <path id="Контур_54" data-name="Контур 54" d="M261.79,0c.13,4.7-3.228,7.954-6.583,7.75C254.654,4,258.561,0,261.79,0Z" transform="translate(-194.706)" fill="#fff"/>
  </g>
</svg>
