<svg xmlns="http://www.w3.org/2000/svg" width="28.352" height="30.93" viewBox="0 0 28.352 30.93">
  <g id="google-play" transform="translate(-1)">
    <path id="Контур_55" data-name="Контур 55" d="M22.033,16.652,18.34,13.02,4.781,26.391Z" transform="translate(1.092 3.759)" fill="#fff"/>
    <path id="Контур_56" data-name="Контур 56" d="M22.033,10.349,4.781.61,18.34,13.981Z" transform="translate(1.092 0.176)" fill="#fff"/>
    <path id="Контур_57" data-name="Контур 57" d="M24.095,14.711a2.4,2.4,0,0,0-.073-3.673L20.4,8.979l-4.038,3.9,4.038,3.9Z" transform="translate(4.436 2.593)" fill="#fff"/>
    <path id="Контур_58" data-name="Контур 58" d="M2.333,30.93,18.1,15.462,2.333,0h0A2.346,2.346,0,0,0,1,2.133V28.8A2.346,2.346,0,0,0,2.333,30.93Z" transform="translate(0 0)" fill="#fff"/>
  </g>
</svg>
