<svg xmlns="http://www.w3.org/2000/svg" width="70.663" height="95.678" viewBox="0 0 70.663 95.678">
  <g id="Сгруппировать_28" data-name="Сгруппировать 28" transform="translate(-159.92 -1795)">
    <path id="Контур_5" data-name="Контур 5" d="M190.626,211.937c-9.566-.048-17.5-7.909-21.392-18.937-2.225-.692-8.314-3.392-8.314-12.109,0-2.59.5-4.388,1.505-5.644a4.509,4.509,0,0,1,3.637-1.681,7.441,7.441,0,0,1,2.043.325c.007-.114.023-.228.032-.349a33.09,33.09,0,0,1-2.2-10.775c0-9.483-3.646-9.9-3.646-9.9,2.866-2.866,10.212-3.336,10.212-3.336-.52-1.455-3.126-2.187-3.126-2.187,3.751-2.71,10.108-2.4,10.108-2.4l-.625-.628a31.281,31.281,0,0,0-3.125-2.186,53.739,53.739,0,0,1,14.894-.094" transform="translate(0.5 1667.5)" fill="none" stroke="#fff" stroke-linecap="round" stroke-linejoin="round" stroke-width="3"/>
    <path id="Контур_6" data-name="Контур 6" d="M192.61,211.937h0c9.557-.04,17.5-7.9,21.392-18.938,2.227-.692,8.313-3.392,8.313-12.109,0-2.59-.5-4.408-1.5-5.643a4.525,4.525,0,0,0-3.64-1.681,6.815,6.815,0,0,0-1.422.18v-.006a79.4,79.4,0,0,1,.841-8.834c.774-.236,1.54-.49,2.286-.779,12.135-4.7,11.964-4.838,5.061-16.23-1.695-2.8-3.246-2.873-5.68-1.322-2.724,1.735-6.379,4.133-9.138,5.814-.641-.205-3.375.375-1.472-1.773.01-.01-.013-.022-.02-.034l6.02-7.991a3.412,3.412,0,0,0-.838-4.909,31.1,31.1,0,0,0-12.982-4.789c-2.516-.345-6.761,5.542-7.223,8.331" transform="translate(0.5 1667.5)" fill="none" stroke="#fff" stroke-linecap="round" stroke-linejoin="round" stroke-width="3"/>
    <path id="Контур_7" data-name="Контур 7" d="M190.546,166.691" transform="translate(0.5 1667.5)" fill="none" stroke="#fff" stroke-miterlimit="10" stroke-width="3"/>
    <path id="Контур_8" data-name="Контур 8" d="M192.53,178.138a1.9,1.9,0,0,1,.213-.038c1.654-.03,2.272,2.068,3.072,3.512.813,1.466,1.533,3.642,3.276,3.671a13.35,13.35,0,0,0,10.866-5.69c2.206-2.992,1.594-5.984-1.355-6.434a106.753,106.753,0,0,0-16.072-1" transform="translate(0.5 1667.5)" fill="none" stroke="#fff" stroke-linecap="round" stroke-linejoin="round" stroke-width="2"/>
    <line id="Линия_5" data-name="Линия 5" y2="92.678" transform="translate(191.5 1796.5)" fill="none" stroke="#fff" stroke-linecap="round" stroke-linejoin="round" stroke-width="3"/>
    <path id="Контур_9" data-name="Контур 9" d="M191.963,166.307s13.9.951,24.633-1.4" transform="translate(0.5 1667.5)" fill="none" stroke="#fff" stroke-linecap="round" stroke-linejoin="round" stroke-width="3"/>
  </g>
</svg>
