<svg xmlns="http://www.w3.org/2000/svg" width="120.468" height="66.368" viewBox="0 0 120.468 66.368">
  <g id="Сгруппировать_31" data-name="Сгруппировать 31" transform="translate(-2203.782 -1854.258)">
    <path id="Контур_23" data-name="Контур 23" d="M207.874,209.4" transform="translate(2049.5 1667.5)" fill="none" stroke="#000" stroke-linecap="round" stroke-linejoin="round" stroke-width="3.433"/>
    <g id="Сгруппировать_15" data-name="Сгруппировать 15" transform="translate(2050 1668)">
      <path id="Контур_24" data-name="Контур 24" d="M214.045,204.414l-1.84-.307A6.214,6.214,0,0,1,209,202.528l-12.915-12.506,3.278-1.736" fill="none" stroke="#fff" stroke-linecap="round" stroke-linejoin="round" stroke-width="3"/>
      <line id="Линия_25" data-name="Линия 25" y1="17.909" x2="4.965" transform="translate(196.513 195.534)" fill="none" stroke="#fff" stroke-linecap="round" stroke-linejoin="round" stroke-width="3"/>
      <line id="Линия_26" data-name="Линия 26" x1="15.706" y2="10.663" transform="translate(184.364 194.22)" fill="none" stroke="#fff" stroke-linecap="round" stroke-linejoin="round" stroke-width="3"/>
      <path id="Контур_25" data-name="Контур 25" d="M184.422,204.562l-3.117,17.192,11.286-4.172" fill="none" stroke="#fff" stroke-linecap="round" stroke-linejoin="round" stroke-width="3"/>
      <g id="Эллипс_19" data-name="Эллипс 19" transform="translate(192.384 213.141)" fill="none" stroke="#fff" stroke-miterlimit="10" stroke-width="2">
        <circle cx="3.298" cy="3.298" r="3.298" stroke="none"/>
        <circle cx="3.298" cy="3.298" r="2.298" fill="none"/>
      </g>
      <g id="Эллипс_20" data-name="Эллипс 20" transform="translate(202.456 192.731)" fill="none" stroke="#fff" stroke-miterlimit="10" stroke-width="3">
        <circle cx="11.483" cy="11.483" r="11.483" stroke="none"/>
        <circle cx="11.483" cy="11.483" r="9.983" fill="none"/>
      </g>
      <g id="Эллипс_21" data-name="Эллипс 21" transform="translate(170.063 210.345)" fill="none" stroke="#fff" stroke-miterlimit="10" stroke-width="3">
        <circle cx="11.483" cy="11.483" r="11.483" stroke="none"/>
        <circle cx="11.483" cy="11.483" r="9.983" fill="none"/>
      </g>
      <line id="Линия_27" data-name="Линия 27" x1="14.293" y1="15.186" transform="translate(179.13 198.852)" fill="none" stroke="#fff" stroke-linecap="round" stroke-linejoin="round" stroke-width="3"/>
      <line id="Линия_28" data-name="Линия 28" y1="3.5" x2="6.608" transform="translate(176.894 196.537)" fill="none" stroke="#fff" stroke-linecap="round" stroke-linejoin="round" stroke-width="3"/>
    </g>
    <path id="Контур_26" data-name="Контур 26" d="M202.8,223.086l6.1,1.848L230,219.9l8.877,25.9-26.42,5.824-28.628-5.155-28.144,5.243,5.994-26.893,3.807-1.137" transform="translate(2049.5 1667.5)" fill="none" stroke="#fff" stroke-linecap="round" stroke-linejoin="round" stroke-width="2.816"/>
    <path id="Контур_27" data-name="Контур 27" d="M274.75,199.81" transform="translate(2049.5 1667.5)" fill="none" stroke="#000" stroke-linecap="round" stroke-linejoin="round" stroke-width="2.461"/>
    <path id="Контур_28" data-name="Контур 28" stroke="#fff" d="M214.045,238.871c-4.863,2.794-9.011,5.989-13.272,5.44-7.141-.921-9.771-8.012-21.643-8.012-8.726,0-16.644,9.894-16.644,9.894" fill="none" transform="translate(2049.5 1667.5)" stroke-linecap="round" stroke-linejoin="round" stroke-width="2.289" stroke-dasharray="2.289 5.722"/>
    <path id="Контур_29" data-name="Контур 29" stroke="#000" d="M228.955,247.995" fill="none" transform="translate(2049.5 1667.5)" stroke-linecap="round" stroke-linejoin="round" stroke-width="2.289" stroke-dasharray="2.289 5.722"/>
    <path id="Контур_30" data-name="Контур 30" stroke="#000" d="M216.984,237.42" fill="none" transform="translate(2049.5 1667.5)" stroke-linecap="round" stroke-linejoin="round" stroke-width="2.289" stroke-dasharray="2.289 5.722"/>
    <g id="Контур_31" data-name="Контур 31" transform="translate(2050 1668)" fill="none" stroke-miterlimit="10">
      <path d="M226.226,231.54c0,2.126-2.89,6.314-4.331,8.271a.992.992,0,0,1-1.6,0c-1.441-1.957-4.331-6.145-4.331-8.271a5.129,5.129,0,1,1,10.258,0Z" stroke="none"/>
      <path d="M 221.0970001220703 228.4135589599609 C 219.3730773925781 228.4135589599609 217.9705657958984 229.8160552978516 217.9705657958984 231.5399932861328 C 217.9705657958984 231.6276550292969 218.0085754394531 232.4621429443359 219.3257141113281 234.7346954345703 C 219.8861389160156 235.7016296386719 220.5238342285156 236.6661224365234 221.0970001220703 237.4876403808594 C 221.6703186035156 236.6658782958984 222.3079681396484 235.7014617919922 222.8682861328125 234.7346954345703 C 224.1854248046875 232.4621429443359 224.2234344482422 231.6276550292969 224.2234344482422 231.5399932861328 C 224.2234344482422 229.8160552978516 222.8209228515625 228.4135589599609 221.0970001220703 228.4135589599609 M 221.0970001220703 226.4109954833984 C 223.9299926757813 226.4109954833984 226.2259979248047 228.7070007324219 226.2259979248047 231.5399932861328 C 226.2259979248047 233.6660003662109 223.3359985351563 237.85400390625 221.8950042724609 239.8110046386719 C 221.6969909667969 240.0795135498047 221.3970031738281 240.2137603759766 221.0970001220703 240.2137603759766 C 220.7969970703125 240.2137603759766 220.4970092773438 240.0795135498047 220.2989959716797 239.8110046386719 C 218.8580017089844 237.85400390625 215.9680023193359 233.6660003662109 215.9680023193359 231.5399932861328 C 215.9680023193359 228.7070007324219 218.2640075683594 226.4109954833984 221.0970001220703 226.4109954833984 Z" stroke="none" fill="#fff"/>
    </g>
    <circle id="Эллипс_22" data-name="Эллипс 22" cx="1.622" cy="1.622" r="1.622" transform="translate(2269 1898)" fill="#fff"/>
  </g>
</svg>
