<svg xmlns="http://www.w3.org/2000/svg" width="85.932" height="80.435"><g data-name="Сгруппировать 33" transform="translate(-3536.581 -1837.283)"><g data-name="Сгруппировать 22" transform="translate(3102 1668)" fill="none"><path data-name="Контур 39" d="M498.469 173.284h-11.181a4.21 4.21 0 00-4.211 4.21v15.376a4.21 4.21 0 004.211 4.21h22.9c1.574 0 4.772-.224 4.772-4.21v-2.736" stroke="#fff" stroke-linecap="round" stroke-linejoin="round" stroke-width="3"/><rect data-name="Прямоугольник 3" width="19.973" height="18.816" rx="4.238" transform="translate(497.616 171.637)" stroke-width="3" stroke="#fff" stroke-linecap="round" stroke-linejoin="round"/><g data-name="Контур 40" stroke-linecap="round" stroke-linejoin="round"><path d="M514.27 181.044a6.668 6.668 0 11-1.96-4.721 6.667 6.667 0 011.96 4.721z"/><path d="M507.603 176.377a4.672 4.672 0 00-4.667 4.667 4.673 4.673 0 004.667 4.668 4.673 4.673 0 004.667-4.668 4.63 4.63 0 00-1.372-3.304 4.638 4.638 0 00-3.295-1.363m0-2c1.837 0 3.501.744 4.707 1.946a6.667 6.667 0 11-4.707-1.946z" fill="#fff"/></g><g data-name="Прямоугольник 4" transform="translate(486.287 176.742)" stroke="#fff" stroke-miterlimit="10" stroke-width="2"><rect width="8.221" height="8.221" rx="1.08" stroke="none"/><rect x="1" y="1" width="6.221" height="6.221" rx=".08"/></g><path data-name="Линия 39" stroke="#fff" stroke-linecap="round" stroke-linejoin="round" stroke-width="2" d="M498.74 197.647v5.099"/><path data-name="Контур 41" d="M495.605 200.182v5.708h6.27v-5.708" stroke="#fff" stroke-linecap="round" stroke-linejoin="round" stroke-width="2"/><path data-name="Линия 40" stroke="#fff" stroke-linecap="round" stroke-linejoin="round" stroke-width="3" d="M491.329 205.89h14.822"/><g data-name="Эллипс 30" transform="translate(487.448 186.82)" stroke="#fff" stroke-linecap="round" stroke-linejoin="round" stroke-width="3"><circle cx="2.949" cy="2.949" r="2.949" stroke="none"/><circle cx="2.949" cy="2.949" r="1.449"/></g></g><g data-name="Сгруппировать 23" fill="none" stroke="#fff" stroke-linecap="round" stroke-linejoin="round"><path data-name="Контур 42" d="M3564.232 1865.442s-.033-5.607-3.125-7.84c-4.019-2.9-10.5.911-10.5.911s-1.668-3.276-2.667-3.749c-2.132-1.009-9.859-1.048-9.859-1.048l.743-3.641a15 15 0 0114.534-11.292h7.353a15 15 0 0115 15h0c0 4.3-1.854 10.3-1.854 10.3a51.636 51.636 0 01-9.625 1.359z" stroke-width="3"/><path data-name="Линия 41" stroke-width="2" d="M3551.172 1858.513l3.191 9.268"/><path data-name="Линия 42" stroke-width="2" d="M3564.232 1865.442l-9.869 2.339"/><path data-name="Линия 43" stroke-width="3" d="M3554.363 1867.781l-3.734 5.283"/><g data-name="Эллипс 31" transform="translate(3548.337 1870.773)" stroke-width="3"><circle cx="2.292" cy="2.292" r="2.292" stroke="none"/><circle cx="2.292" cy="2.292" r=".792"/></g></g><path data-name="Контур 43" d="M3558.968 1882.323l.745 2.1a2.871 2.871 0 003.938 1.631l2.008-.955a2.871 2.871 0 013.825 3.826l-.954 2.008a2.871 2.871 0 001.631 3.938l2.1.745a2.871 2.871 0 010 5.41l-2.1.745a2.871 2.871 0 00-1.631 3.938l.954 2.007a2.871 2.871 0 01-3.825 3.826l-2.008-.954a2.871 2.871 0 00-3.938 1.631l-.745 2.094a2.871 2.871 0 01-5.41 0l-.745-2.094a2.871 2.871 0 00-3.938-1.631l-2.008.954a2.871 2.871 0 01-3.825-3.826l.954-2.007a2.871 2.871 0 00-1.631-3.938l-2.1-.745a2.871 2.871 0 010-5.41l2.1-.745a2.871 2.871 0 001.631-3.938l-.954-2.008a2.871 2.871 0 013.825-3.826l2.008.955a2.871 2.871 0 003.938-1.631l.745-2.1a2.871 2.871 0 015.41 0z" fill="none" stroke="#fff" stroke-linecap="round" stroke-linejoin="round" stroke-width="3"/><circle data-name="Эллипс 32" cx="7.449" cy="7.449" r="7.449" transform="translate(3548.5 1890.5)" stroke-width="2" stroke="#fff" stroke-linecap="round" stroke-linejoin="round" fill="none"/><g data-name="Сгруппировать 24"><path data-name="Контур 44" d="M3622.478 1889.252a1 1 0 00-.531-.654l-10.223-5.112a1 1 0 00-.455-.107h-5.623a1.025 1.025 0 00-1.022 1.022 3.578 3.578 0 01-7.156 0 1.025 1.025 0 00-1.022-1.022h-5.623a1 1 0 00-.455.107l-10.222 5.114a1.022 1.022 0 00-.394 1.482l5.111 7.667a1.019 1.019 0 001.14.414l3.8-1.14v18.047a1.025 1.025 0 001.022 1.022h20.446a1.025 1.025 0 001.022-1.022v-18.049l3.8 1.14a1.123 1.123 0 00.291.041 1.007 1.007 0 00.849-.455l5.111-7.667a1.01 1.01 0 00.134-.828zm-6.527 6.732l-3.66-1.1v-1.284a1.022 1.022 0 10-2.044 0v20.445h-18.4V1893.6a1.023 1.023 0 10-2.045 0v1.283l-3.66 1.1-4.048-6.073 8.971-4.488h4.452a5.624 5.624 0 0011.061 0h4.452l8.97 4.488z" fill="#fff"/></g></g></svg>