<svg xmlns="http://www.w3.org/2000/svg" width="78.816" height="73.144"><g data-name="Сгруппировать 30" fill="none" stroke="#fff"><g data-name="Сгруппировать 6"><path data-name="Контур 15" d="M63.632 29.952l-1.96-1.5a8.2 8.2 0 01-2.77-3.83L51.549 2.015h4.906" stroke-linecap="round" stroke-linejoin="round" stroke-width="3"/><path data-name="Линия 10" stroke-linecap="round" stroke-linejoin="round" stroke-width="3" d="M37.556 29.652l16.885-17.856"/><path data-name="Линия 11" stroke-linecap="round" stroke-linejoin="round" stroke-width="3" d="M53.61 9.39l-24.953 2.741"/><path data-name="Контур 16" d="M28.923 11.791L14.641 29.952l15.77 2.11" stroke-linecap="round" stroke-linejoin="round" stroke-width="3"/><g data-name="Эллипс 9" transform="translate(30.369 28.278)" stroke-miterlimit="10" stroke-width="2"><circle cx="4.362" cy="4.362" r="4.362" stroke="none"/><circle cx="4.362" cy="4.362" r="3.362"/></g><g data-name="Эллипс 10" transform="translate(48.448 14.468)" stroke-miterlimit="10" stroke-width="3"><circle cx="15.184" cy="15.184" r="15.184" stroke="none"/><circle cx="15.184" cy="15.184" r="13.684"/></g><g data-name="Эллипс 11" transform="translate(0 14.468)" stroke-miterlimit="10" stroke-width="3"><circle cx="15.184" cy="15.184" r="15.184" stroke="none"/><circle cx="15.184" cy="15.184" r="13.684"/></g><path data-name="Линия 12" stroke-linecap="round" stroke-linejoin="round" stroke-width="3" d="M33.576 28.436L26.272 1.844"/><path data-name="Линия 13" stroke-linecap="round" stroke-linejoin="round" stroke-width="3" d="M22.926 1.844h9.888"/></g><g data-name="Сгруппировать 11" stroke-width="2"><g data-name="Сгруппировать 7"><g data-name="Эллипс 12" transform="translate(13.572 64.421)" stroke-miterlimit="10"><circle cx="4.362" cy="4.362" r="4.362" stroke="none"/><circle cx="4.362" cy="4.362" r="3.362"/></g><path data-name="Линия 14" stroke-linecap="round" stroke-linejoin="round" d="M17.934 64.42V52.748"/></g><g data-name="Сгруппировать 8"><g data-name="Эллипс 13" transform="translate(42.205 51.614)" stroke-miterlimit="10"><circle cx="4.362" cy="4.362" r="4.362" stroke="none"/><circle cx="4.362" cy="4.362" r="3.362"/></g><path data-name="Линия 15" stroke-linecap="round" stroke-linejoin="round" d="M46.567 60.338V71.89"/></g><g data-name="Сгруппировать 9"><g data-name="Эллипс 14" transform="translate(27.889 57.592)" stroke-miterlimit="10"><circle cx="4.362" cy="4.362" r="4.362" stroke="none"/><circle cx="4.362" cy="4.362" r="3.362"/></g><path data-name="Линия 16" stroke-linecap="round" stroke-linejoin="round" d="M32.25 57.592v-4.887"/><path data-name="Линия 17" stroke-linecap="round" stroke-linejoin="round" d="M32.25 71.934v-5.618"/></g><g data-name="Сгруппировать 10"><g data-name="Эллипс 15" transform="translate(56.522 55.041)" stroke-miterlimit="10"><circle cx="4.362" cy="4.362" r="4.362" stroke="none"/><circle cx="4.362" cy="4.362" r="3.362"/></g><path data-name="Линия 18" stroke-linecap="round" stroke-linejoin="round" d="M60.883 55.041v-2.336"/><path data-name="Линия 19" stroke-linecap="round" stroke-linejoin="round" d="M60.883 71.933v-8.169"/></g></g></g></svg>