<svg xmlns="http://www.w3.org/2000/svg" width="80.971" height="70.279"><g data-name="Сгруппировать 29" fill="none" stroke="#fff"><g data-name="Сгруппировать 4" stroke-linecap="round" stroke-linejoin="round"><g data-name="Эллипс 5" transform="translate(25.832 56.725)" stroke-width="3"><circle cx="2.643" cy="2.643" r="2.643" stroke="none"/><circle cx="2.643" cy="2.643" r="1.143"/></g><path data-name="Контур 10" d="M52.869 68.732H29.127a3.075 3.075 0 01-2.175-.9l-4.286-4.286a5.907 5.907 0 010-8.354l4.286-4.286a3.075 3.075 0 012.175-.9h23.742a3.077 3.077 0 013.077 3.076v12.575a3.077 3.077 0 01-3.077 3.075z" stroke-width="3.094"/></g><g data-name="Сгруппировать 5"><path data-name="Контур 12" d="M65.369 30.72l-2.013-1.538a8.427 8.427 0 01-2.846-3.935L52.956 2.022h5.04" stroke-linecap="round" stroke-linejoin="round" stroke-width="3"/><path data-name="Линия 6" stroke-linecap="round" stroke-linejoin="round" stroke-width="3" d="M38.582 30.412l17.347-18.344"/><path data-name="Линия 7" stroke-linecap="round" stroke-linejoin="round" stroke-width="3" d="M55.075 9.596L29.44 12.411"/><path data-name="Контур 13" d="M29.714 12.063L15.041 30.72l16.2 2.167" stroke-linecap="round" stroke-linejoin="round" stroke-width="3"/><g data-name="Эллипс 6" transform="translate(31.199 29)" stroke-miterlimit="10" stroke-width="2"><circle cx="4.481" cy="4.481" r="4.481" stroke="none"/><circle cx="4.481" cy="4.481" r="3.481"/></g><g data-name="Эллипс 7" transform="translate(49.772 14.813)" stroke-miterlimit="10" stroke-width="3"><circle cx="15.599" cy="15.599" r="15.599" stroke="none"/><circle cx="15.599" cy="15.599" r="14.099"/></g><g data-name="Эллипс 8" transform="translate(0 14.813)" stroke-miterlimit="10" stroke-width="3"><circle cx="15.599" cy="15.599" r="15.599" stroke="none"/><circle cx="15.599" cy="15.599" r="14.099"/></g><path data-name="Линия 8" stroke-linecap="round" stroke-linejoin="round" stroke-width="3" d="M34.494 29.163L26.99 1.844"/><path data-name="Линия 9" stroke-linecap="round" stroke-linejoin="round" stroke-width="3" d="M23.553 1.844h10.158"/></g></g></svg>