<svg xmlns="http://www.w3.org/2000/svg" width="28.97" height="35.319"><g fill="#fff"><path data-name="Контур 53" d="M9.605 35.319c-5.257-.03-9.6-10.761-9.6-16.225 0-8.927 6.7-10.881 9.277-10.881a10.675 10.675 0 013.5.861 7.824 7.824 0 002 .573 6.22 6.22 0 001.428-.468 11.492 11.492 0 014.322-1.045h.01a8.858 8.858 0 017.413 3.744l.541.812-.778.587a6.547 6.547 0 00-3.14 5.4 6.094 6.094 0 003.4 5.633c.487.293.991.6.991 1.256 0 .432-3.444 9.7-8.445 9.7a6.791 6.791 0 01-2.852-.692 5.783 5.783 0 00-2.538-.611 6.529 6.529 0 00-2.01.544 9.844 9.844 0 01-3.486.813z"/><path data-name="Контур 54" d="M21.062 0c.13 4.7-3.228 7.954-6.583 7.75C13.926 4 17.833 0 21.062 0z"/></g></svg>