<svg xmlns="http://www.w3.org/2000/svg" width="95.678" height="102.381"><g data-name="Сгруппировать 35"><path data-name="Линия 48" fill="none" stroke="#fff" stroke-linecap="round" stroke-linejoin="round" stroke-width="3" d="M94.178 50.384H1.5"/><g data-name="Сгруппировать 27" fill="none" stroke="#fff"><path data-name="Контур 50" d="M72.331 87.076l-2.015-1.54a8.432 8.432 0 01-2.848-3.938l-7.277-20.977h8.162a3.978 3.978 0 013.978 3.978h0a3.977 3.977 0 01-3.978 3.977H67.8" stroke-linecap="round" stroke-linejoin="round" stroke-width="3"/><path data-name="Линия 49" stroke-linecap="round" stroke-linejoin="round" stroke-width="3" d="M45.693 86.584l17.188-18.176"/><path data-name="Линия 50" stroke-linecap="round" stroke-linejoin="round" stroke-width="3" d="M62.026 65.933H35.955"/><path data-name="Контур 51" d="M36.643 68.403L21.957 87.076l16.216 2.169" stroke-linecap="round" stroke-linejoin="round" stroke-width="3"/><g data-name="Эллипс 37" transform="translate(38.13 85.355)" stroke-miterlimit="10" stroke-width="2"><circle cx="4.485" cy="4.485" r="4.485" stroke="none"/><circle cx="4.485" cy="4.485" r="3.485"/></g><g data-name="Эллипс 38" transform="translate(56.718 71.155)" stroke-miterlimit="10" stroke-width="3"><circle cx="15.613" cy="15.613" r="15.613" stroke="none"/><circle cx="15.613" cy="15.613" r="14.113"/></g><g data-name="Эллипс 39" transform="translate(6.904 71.155)" stroke-miterlimit="10" stroke-width="3"><circle cx="15.613" cy="15.613" r="15.613" stroke="none"/><circle cx="15.613" cy="15.613" r="14.113"/></g><path data-name="Линия 51" stroke-linecap="round" stroke-linejoin="round" stroke-width="3" d="M41.324 85.544l-7.407-27.369"/><path data-name="Линия 52" stroke-linecap="round" stroke-linejoin="round" stroke-width="3" d="M28.209 58.175h12.435"/></g><path data-name="Контур 52" d="M72.03 16.029a14.068 14.068 0 00-5.614 1.161l-.945-1.723c-.324-.618-.769-1.506-1.572-1.1l-4.456-8.672 1.184-2.419a1.308 1.308 0 00-.3-1.541c-.016-.024-.032-.051-.05-.073L59.428.54a1.354 1.354 0 00-1.9-.26 1.268 1.268 0 00-.135.118L56.32.084a1.105 1.105 0 00-.618 2.122l2.037.59.129.172-1.247 2.552L39.4 16.084l-1.041-3.19a1.266 1.266 0 00-.157-.322l3.314-1.617.04-.027c.256-.172.929-.627.726-1.294-.074-.24-.316-.643-1.119-.643a2.864 2.864 0 00-.66.078l-8.052 2.042a1.435 1.435 0 00-.9.685 1.48 1.48 0 00-.155 1.106l.4 1.178a1.087 1.087 0 001.144.771 3.413 3.413 0 00.82-.127l.069-.017 2.048-1 2.652 8.118-3.092 1.421a14.155 14.155 0 101.751 7.58l3.171-.275A2.614 2.614 0 0045 28.892c0-.048-.012-.093-.014-.14l3.9-2.738c2.084-2.021 9.6-17.355 9.6-17.355l3.5 6.807c-.626.434-.27 1.186.03 1.755l1.054 2.012a14.156 14.156 0 108.964-3.2zM33.085 27.205a10.614 10.614 0 01.29 1.336l-3.937.343zM23.044 40.542a10.447 10.447 0 119.007-15.734l-10.322 4.748a1.436 1.436 0 00-.179.1 1.305 1.305 0 00.569 2.479.887.887 0 00.115-.007l11.2-.976a10.463 10.463 0 01-10.39 9.39zm16.881-12.573l-2.844.248a14.054 14.054 0 00-.594-2.577l2.856-1.319.968 2.966a2.651 2.651 0 00-.386.682zm2.575 2.077a1.167 1.167 0 111.167-1.162 1.167 1.167 0 01-1.167 1.162zm5.213-7.235a5.588 5.588 0 01-1.7 1.908l-2.549 1.79a2.589 2.589 0 00-.724-.206l-1-3.075.968-.446c.127.03.851.283 1.072.183l4.345-1.973c.368-.166.645-.734.807-1.072l.477-.22zm3.77-6.944l-3.717 1.71c-.33-.068-.968-.32-1.3-.169l-4.346 1.976c-.35.158-.333.708-.5 1.024l-.706.326-.715-2.19 14.75-9.053zM72.03 40.64a10.444 10.444 0 01-7.191-18.021l5 9.548a1.958 1.958 0 003.468-1.818l-5.164-9.856a10.448 10.448 0 113.883 20.147z" fill="#fff"/></g></svg>