<svg xmlns="http://www.w3.org/2000/svg" width="120.468" height="66.368"><g data-name="Сгруппировать 31" transform="translate(-2203.782 -1854.258)"><g data-name="Сгруппировать 15" fill="none" stroke="#fff"><path data-name="Контур 24" d="M2264.045 1872.414l-1.84-.307a6.214 6.214 0 01-3.205-1.579l-12.915-12.506 3.278-1.736" stroke-linecap="round" stroke-linejoin="round" stroke-width="3"/><path data-name="Линия 25" stroke-linecap="round" stroke-linejoin="round" stroke-width="3" d="M2246.513 1881.443l4.965-17.909"/><path data-name="Линия 26" stroke-linecap="round" stroke-linejoin="round" stroke-width="3" d="M2250.07 1862.22l-15.706 10.663"/><path data-name="Контур 25" d="M2234.422 1872.562l-3.117 17.192 11.286-4.172" stroke-linecap="round" stroke-linejoin="round" stroke-width="3"/><g data-name="Эллипс 19" transform="translate(2242.384 1881.141)" stroke-miterlimit="10" stroke-width="2"><circle cx="3.298" cy="3.298" r="3.298" stroke="none"/><circle cx="3.298" cy="3.298" r="2.298"/></g><g data-name="Эллипс 20" transform="translate(2252.456 1860.731)" stroke-miterlimit="10" stroke-width="3"><circle cx="11.483" cy="11.483" r="11.483" stroke="none"/><circle cx="11.483" cy="11.483" r="9.983"/></g><g data-name="Эллипс 21" transform="translate(2220.063 1878.345)" stroke-miterlimit="10" stroke-width="3"><circle cx="11.483" cy="11.483" r="11.483" stroke="none"/><circle cx="11.483" cy="11.483" r="9.983"/></g><path data-name="Линия 27" stroke-linecap="round" stroke-linejoin="round" stroke-width="3" d="M2243.423 1882.038l-14.293-15.186"/><path data-name="Линия 28" stroke-linecap="round" stroke-linejoin="round" stroke-width="3" d="M2226.894 1868.037l6.608-3.5"/></g><path data-name="Контур 26" d="M2252.3 1890.586l6.1 1.848 21.1-5.034 8.877 25.9-26.42 5.824-28.628-5.155-28.144 5.243 5.994-26.893 3.807-1.137" fill="none" stroke="#fff" stroke-linecap="round" stroke-linejoin="round" stroke-width="2.816"/><path data-name="Контур 28" stroke="#fff" d="M2263.545 1906.371c-4.863 2.794-9.011 5.989-13.272 5.44-7.141-.921-9.771-8.012-21.643-8.012-8.726 0-16.644 9.894-16.644 9.894" fill="none" stroke-linecap="round" stroke-linejoin="round" stroke-width="2.289" stroke-dasharray="2.289 5.722"/><g data-name="Контур 31" fill="none" stroke-miterlimit="10"><path d="M2276.226 1899.54c0 2.126-2.89 6.314-4.331 8.271a.992.992 0 01-1.6 0c-1.441-1.957-4.331-6.145-4.331-8.271a5.129 5.129 0 1110.258 0z"/><path d="M2271.097 1896.414a3.13 3.13 0 00-3.126 3.126c0 .088.038.922 1.355 3.195a39.95 39.95 0 001.771 2.753 39.948 39.948 0 001.771-2.753c1.317-2.273 1.355-3.107 1.355-3.195a3.13 3.13 0 00-3.126-3.126m0-2.003a5.129 5.129 0 015.129 5.129c0 2.126-2.89 6.314-4.331 8.271a.985.985 0 01-.798.403c-.3 0-.6-.134-.798-.403-1.441-1.957-4.331-6.145-4.331-8.271a5.129 5.129 0 015.129-5.129z" fill="#fff"/></g><circle data-name="Эллипс 22" cx="1.622" cy="1.622" r="1.622" transform="translate(2269 1898)" fill="#fff"/></g></svg>