<svg xmlns="http://www.w3.org/2000/svg" width="81.262" height="82.361"><g data-name="Сгруппировать 32" fill="none" stroke="#fff"><g data-name="Сгруппировать 20" stroke-width="2"><g data-name="Сгруппировать 16"><g data-name="Эллипс 23" transform="translate(12.797 73.638)" stroke-miterlimit="10"><circle cx="4.362" cy="4.362" r="4.362" stroke="none"/><circle cx="4.362" cy="4.362" r="3.362"/></g><path data-name="Линия 29" stroke-linecap="round" stroke-linejoin="round" d="M17.159 73.637V61.965"/></g><g data-name="Сгруппировать 17"><g data-name="Эллипс 24" transform="translate(41.43 60.831)" stroke-miterlimit="10"><circle cx="4.362" cy="4.362" r="4.362" stroke="none"/><circle cx="4.362" cy="4.362" r="3.362"/></g><path data-name="Линия 30" stroke-linecap="round" stroke-linejoin="round" d="M45.792 69.555v11.552"/></g><g data-name="Сгруппировать 18"><g data-name="Эллипс 25" transform="translate(27.114 66.809)" stroke-miterlimit="10"><circle cx="4.362" cy="4.362" r="4.362" stroke="none"/><circle cx="4.362" cy="4.362" r="3.362"/></g><path data-name="Линия 31" stroke-linecap="round" stroke-linejoin="round" d="M31.475 66.809v-4.887"/><path data-name="Линия 32" stroke-linecap="round" stroke-linejoin="round" d="M31.475 81.151v-5.618"/></g><g data-name="Сгруппировать 19"><g data-name="Эллипс 26" transform="translate(55.747 64.258)" stroke-miterlimit="10"><circle cx="4.362" cy="4.362" r="4.362" stroke="none"/><circle cx="4.362" cy="4.362" r="3.362"/></g><path data-name="Линия 33" stroke-linecap="round" stroke-linejoin="round" d="M60.108 64.258v-2.336"/><path data-name="Линия 34" stroke-linecap="round" stroke-linejoin="round" d="M60.108 81.15v-8.169"/></g></g><g data-name="Сгруппировать 21"><path data-name="Контур 34" d="M56.966 17.155l-1.738-.291a5.858 5.858 0 01-3.03-1.492l-12.2-11.815 3.1-1.641" stroke-linecap="round" stroke-linejoin="round" stroke-width="2.834"/><path data-name="Линия 35" stroke-linecap="round" stroke-linejoin="round" stroke-width="2.834" d="M40.401 25.685l4.691-16.921"/><path data-name="Линия 36" stroke-linecap="round" stroke-linejoin="round" stroke-width="2.834" d="M43.761 7.523L28.922 17.598"/><path data-name="Контур 35" d="M28.977 17.294l-2.941 16.243 10.663-3.942" stroke-linecap="round" stroke-linejoin="round" stroke-width="2.834"/><g data-name="Эллипс 27" transform="translate(36.5 25.4)" stroke-miterlimit="10" stroke-width="1.89"><circle cx="3.116" cy="3.116" r="3.116" stroke="none"/><circle cx="3.116" cy="3.116" r="2.172"/></g><g data-name="Эллипс 28" transform="translate(46.016 6.116)" stroke-miterlimit="10" stroke-width="2.834"><circle cx="10.849" cy="10.849" r="10.849" stroke="none"/><circle cx="10.849" cy="10.849" r="9.432"/></g><g data-name="Эллипс 29" transform="translate(15.41 22.758)" stroke-miterlimit="10" stroke-width="2.834"><circle cx="10.849" cy="10.849" r="10.849" stroke="none"/><circle cx="10.849" cy="10.849" r="9.432"/></g><path data-name="Линия 37" stroke-linecap="round" stroke-linejoin="round" stroke-width="2.834" d="M37.481 26.248L23.977 11.9"/><path data-name="Линия 38" stroke-linecap="round" stroke-linejoin="round" stroke-width="2.834" d="M21.864 13.019l6.244-3.307"/></g><path data-name="Контур 36" d="M45.843 34.296l5.761 1.746 19.94-4.751 8.392 16.972-24.962 5.5-27.049-4.871-26.592 4.954 5.663-17.909 3.6-1.075" stroke-linecap="round" stroke-linejoin="round" stroke-width="2.66"/></g></svg>